<?xml version="1.0" encoding="utf-8"?>
<!-- Generator: Adobe Illustrator 18.1.1, SVG Export Plug-In . SVG Version: 6.00 Build 0)  -->
<!DOCTYPE svg PUBLIC "-//W3C//DTD SVG 1.1//EN" "http://www.w3.org/Graphics/SVG/1.1/DTD/svg11.dtd">
<svg version="1.1" id="Layer_1" xmlns="http://www.w3.org/2000/svg" xmlns:xlink="http://www.w3.org/1999/xlink" x="0px" y="0px"
	 viewBox="0 0 270.667 186.666" style="enable-background:new 0 0 270.667 186.666;" xml:space="preserve">
<path style="fill:#FFFFFF;" d="M266.001,29.167c0-1.167,0-2.334-1.167-3.5V24.5C261.334,14,252.001,7,240.334,7h2.333
	c0,0-45.5-7-107.333-7C74.667,0,28,7,28,7h2.334c-11.666,0-21,7-24.5,17.5v1.167c0,1.166,0,2.333-1.166,3.5
	C3.5,40.833,0,65.333,0,93.333s3.5,52.5,4.668,64.167c0,1.166,0,2.333,1.166,3.5v1.166c3.5,10.5,12.834,17.5,24.5,17.5H28
	c0,0,45.501,7,107.334,7c60.667,0,107.333-7,107.333-7h-2.333c11.667,0,21-7,24.5-17.5V161c0-1.167,0-2.334,1.167-3.5
	c1.166-11.667,4.666-36.167,4.666-64.167S268.334,40.833,266.001,29.167z M175.001,99.167l-54.834,39.666
	c-1.166,1.167-2.333,1.167-3.5,1.167c-1.166,0-2.333,0-3.5-1.167c-2.333-1.167-3.5-3.5-3.5-5.833V53.667
	c0-2.334,1.167-4.667,3.5-5.834c2.334-1.166,4.667-1.166,7,0L175.001,87.5c1.166,1.167,2.333,3.5,2.333,5.833
	C178.501,95.667,177.334,97.999,175.001,99.167z"/>
</svg>
