<?xml version="1.0" encoding="utf-8"?>
<!-- Generator: Adobe Illustrator 18.1.1, SVG Export Plug-In . SVG Version: 6.00 Build 0)  -->
<!DOCTYPE svg PUBLIC "-//W3C//DTD SVG 1.1//EN" "http://www.w3.org/Graphics/SVG/1.1/DTD/svg11.dtd">
<svg version="1.1" id="Layer_1" xmlns="http://www.w3.org/2000/svg" xmlns:xlink="http://www.w3.org/1999/xlink" x="0px" y="0px"
	 viewBox="0 0 60 40" style="enable-background:new 0 0 60 40;" xml:space="preserve">
<path style="fill:#FFFFFF;" d="M58.966,6.25c0-0.25,0-0.5-0.259-0.75V5.25C57.931,3,55.862,1.5,53.276,1.5h0.517
	C53.793,1.5,43.707,0,30,0C16.552,0,6.207,1.5,6.207,1.5h0.517C4.138,1.5,2.069,3,1.293,5.25V5.5c0,0.25,0,0.5-0.258,0.75
	C0.776,8.75,0,14,0,20s0.776,11.25,1.035,13.75c0,0.25,0,0.5,0.258,0.75v0.25C2.069,37,4.138,38.5,6.724,38.5H6.207
	c0,0,10.086,1.5,23.793,1.5c13.448,0,23.793-1.5,23.793-1.5h-0.517c2.586,0,4.655-1.5,5.431-3.75V34.5c0-0.25,0-0.5,0.259-0.75
	C59.224,31.25,60,26,60,20S59.483,8.75,58.966,6.25z M38.793,21.25l-12.155,8.5C26.379,30,26.121,30,25.862,30
	c-0.258,0-0.517,0-0.776-0.25C24.569,29.5,24.31,29,24.31,28.5v-17c0-0.5,0.259-1,0.776-1.25c0.517-0.25,1.035-0.25,1.552,0
	l12.155,8.5C39.052,19,39.31,19.5,39.31,20C39.569,20.5,39.31,21,38.793,21.25z"/>
</svg>
